<?xml version="1.0" encoding="iso-8859-1"?>
<!-- Generator: Adobe Illustrator 19.1.0, SVG Export Plug-In . SVG Version: 6.00 Build 0)  -->
<svg version="1.1" id="Capa_1" xmlns="http://www.w3.org/2000/svg" xmlns:xlink="http://www.w3.org/1999/xlink" x="0px" y="0px"
	 viewBox="0 0 490 490" style="enable-background:new 0 0 490 490;" xml:space="preserve">
<g>
	<g>
		<path d="M408.5,151.9H386c-3.7-19.8-11.4-38.2-22.3-54.2l15.8-15.8c5.9-5.9,5.9-15.5,0-21.4L363,44c-5.9-5.9-15.5-5.9-21.4,0
			l-15.7,15.7c-16-11-34.4-18.8-54.3-22.6v-22c0-8.3-6.8-15.1-15.1-15.1h-23.3c-8.3,0-15.1,6.8-15.1,15.1v22.1
			c-19.8,3.8-38.2,11.6-54.3,22.6l-15.7-15.7c-5.9-5.9-15.5-5.9-21.4,0l-16.5,16.5c-5.9,5.9-5.9,15.5,0,21.4L126,97.8
			c-10.9,16-18.6,34.4-22.3,54.2H81.3c-8.3,0-15.1,6.8-15.1,15.1v23.3c0,8.3,6.8,15.1,15.1,15.1H104c3.8,19.7,11.6,37.9,22.5,53.8
			l-16.2,16.2c-5.9,5.9-5.9,15.5,0,21.4l16.5,16.5c5.9,5.9,15.5,5.9,21.4,0l16.3-16.3c5.6,3.8,11.4,7.2,17.5,10.2v-53.6
			c-21.7-18-35.4-45.2-35.4-75.6c0-54.3,44-98.4,98.4-98.4c54.3,0,98.4,44,98.4,98.4c0,30.4-13.8,57.6-35.4,75.6v53.6
			c6.1-3,12-6.4,17.5-10.2l16.3,16.3c5.9,5.9,15.5,5.9,21.4,0l16.5-16.5c5.9-5.9,5.9-15.5,0-21.4l-16.2-16.2
			c10.9-15.9,18.7-34.1,22.5-53.8h22.7c8.3,0,15.1-6.8,15.1-15.1V167C423.6,158.7,416.8,151.9,408.5,151.9z"/>
		<path d="M283.8,124.8c-2.6-1.9-6.2-0.1-6.2,3.1V156c0,13.3-10.8,24.1-24.1,24.1h-17.2c-13.3,0-24.1-10.8-24.1-24.1v-28.1
			c0-3.2-3.6-5-6.2-3.1c-16.1,11.9-26.6,31.1-26.6,52.7c0,21.2,10.1,40,25.7,52c6.9,5.3,10.9,13.4,10.9,22.1v209.6
			c0,15.9,13,28.8,28.9,28.8c16,0,28.9-12.9,28.9-28.8V251.5c0-8.7,4-16.8,10.9-22.1c15.6-12,25.7-30.8,25.7-52
			C310.4,155.9,300,136.7,283.8,124.8z M253.3,457.5c0,4.6-3.8,8.4-8.4,8.4s-8.4-3.8-8.4-8.4V243.6c0-4.6,3.8-8.4,8.4-8.4
			s8.4,3.8,8.4,8.4V457.5z"/>
	</g>
</g>
<g>
</g>
<g>
</g>
<g>
</g>
<g>
</g>
<g>
</g>
<g>
</g>
<g>
</g>
<g>
</g>
<g>
</g>
<g>
</g>
<g>
</g>
<g>
</g>
<g>
</g>
<g>
</g>
<g>
</g>
</svg>
