<?xml version="1.0" encoding="iso-8859-1"?>
<!-- Generator: Adobe Illustrator 19.1.0, SVG Export Plug-In . SVG Version: 6.00 Build 0)  -->
<svg version="1.1" id="Capa_1" xmlns="http://www.w3.org/2000/svg" xmlns:xlink="http://www.w3.org/1999/xlink" x="0px" y="0px"
	 viewBox="0 0 488.532 488.532" style="enable-background:new 0 0 488.532 488.532;" xml:space="preserve">
<g>
	<g>
		<path d="M363.06,209.3c-2.1,0.5-3.6,2.1-5.7,2.6c-2.6,1-4.7,1.6-7.3,2.1c-3.1,0.5-5.2-1.6-6.2-4.2c-0.5-2.6-1-4.7-0.5-7.3
			c0.5-4.7,1.6-9.4,2.6-14.1c2.6-14.1,5.2-28.6,7.8-42.7c0.5-3.6,1.6-7.8,1-11.5c0-4.7-3.1-6.8-7.8-6.8c-6.2,0-13,0-19.3,0
			s-12.5,0-18.2,0c-1.6,0-3.1,0-4.7,0.5c-2.6,0.5-4.2,2.1-4.7,4.2c0,1.6,1,3.6,3.6,4.7c2.1,0.5,4.2,1,6.8,1c5.2,0.5,6.8,2.6,6.8,7.8
			c0,1,0,1.6,0,2.6c-2.1,12.5-4.2,25-6.8,37.5c-1,7.3-2.1,14.6-3.1,21.3c-1.6,10.4,8.9,20.3,16.7,21.3c4.7,0.5,9.9,1,14.6,1
			c10.4,0,19.3-4.7,26.6-12c1-1,2.6-3.1,2.6-4.7C368.26,209.9,366.16,207.8,363.06,209.3z"/>
		<path d="M443.26,45.3c-59.9-60.4-157.3-60.4-217.1,0c-57.8,57.8-59.9,150-6.2,210.4l1,1c-5.7,12.5-16.1,28.1-31.8,35.9
			c-5.2,2.6-4.2,10.4,1.6,11.5c17.7,2.6,42.7,0,65.6-17.7l0.5,0.5c58.8,34.4,135.9,26.6,186.4-24
			C503.16,202.6,503.16,105.2,443.26,45.3z M334.96,271.8c-65.1,0-117.7-52.6-117.7-117.7s52.6-117.6,117.7-117.6
			s117.7,52.6,117.7,117.7S400.06,271.8,334.96,271.8z"/>
		<path d="M288.56,359.3c-12-12.5-27.6-12.5-40.1,0c-9.4,9.4-18.7,18.7-28.1,28.1c-2.6,2.6-4.7,3.1-7.8,1.6
			c-5.7-3.6-12.5-6.2-18.2-9.9c-27.1-17.2-50-39.1-70.3-64c-9.9-12.5-18.7-25.5-25-40.6c-1-3.1-1-4.7,1.6-7.3
			c9.9-8.9,18.7-18.2,28.1-27.6c13-13,13-28.1,0-41.1c-7.8-7.8-15.1-15.1-22.4-22.4c-7.8-7.8-15.1-15.6-22.9-22.9
			c-12-12-27.6-12-40.1,0c-9.4,9.4-18.7,18.7-28.1,28.1c-8.9,8.9-13.5,19.3-14.6,31.2c-1.6,19.3,3.1,38,9.9,56.2
			c14.1,38,35.4,70.8,60.9,101.5c34.9,41.7,76.5,74.5,125,97.9c21.9,10.4,44.3,18.7,68.2,20.3c17.2,1,31.8-3.6,43.7-16.7
			c7.8-9.4,17.2-17.2,25.5-26c12.5-13,12.5-28.6,0-41.1C318.76,389.5,303.66,374.4,288.56,359.3z"/>
		<path d="M338.56,118.2c10.9,0,19.8-8.9,19.8-19.8s-8.9-20.3-19.8-20.3s-19.8,8.9-20.3,19.8
			C318.76,109.4,327.66,118.2,338.56,118.2z"/>
	</g>
</g>
<g>
</g>
<g>
</g>
<g>
</g>
<g>
</g>
<g>
</g>
<g>
</g>
<g>
</g>
<g>
</g>
<g>
</g>
<g>
</g>
<g>
</g>
<g>
</g>
<g>
</g>
<g>
</g>
<g>
</g>
</svg>
