<?xml version="1.0" encoding="iso-8859-1"?>
<!-- Generator: Adobe Illustrator 19.1.0, SVG Export Plug-In . SVG Version: 6.00 Build 0)  -->
<svg version="1.1" id="Capa_1" xmlns="http://www.w3.org/2000/svg" xmlns:xlink="http://www.w3.org/1999/xlink" x="0px" y="0px"
	 viewBox="0 0 490.468 490.468" style="enable-background:new 0 0 490.468 490.468;" xml:space="preserve">
<g>
	<g>
		<path d="M439.297,194.118c0-109.5-90.7-197.8-201-194c-97.2,3.4-176.9,78.2-186.2,175c-1.9,19.2-0.8,37.9,2.6,55.8l0,0
			c0,0,0.3,2.1,1.3,6c3,13.4,7.4,26.3,13.1,38.5c20.1,47.5,67.1,127.7,174.1,214.3c1.2,1,3,1,4.2,0
			c107.1-86.6,154-166.8,174.1-214.3c5.6-12.2,10.1-25.1,13.1-38.5c0.9-3.9,1.3-6,1.3-6l0,0
			C438.097,219.118,439.297,206.718,439.297,194.118z M334.097,273.718c-2.6-4.9-6.9-8.9-13.6-10.7c-23.3-5.9-42.3-19.3-42.3-19.3
			l-14.8,46.8l-2.8,8.8v-0.1l-2.4,7.5l-7.8-22.1c19.2-26.8-3.9-26.5-5.2-26.5c-1.3,0-24.4-0.3-5.2,26.5l-7.8,22.1l-2.4-7.5v0.1
			l-2.8-8.8l-14.8-46.8c0,0-19,13.4-42.3,19.3c-6.7,1.7-11,5.8-13.6,10.7c-18-20.7-28.9-47.7-28.9-77.3
			c0-65.1,52.8-117.8,117.8-117.8s117.8,52.7,117.8,117.8C362.997,226.018,352.097,253.018,334.097,273.718z"/>
		<path d="M288.497,180.818c0.7-2.1,1.3-4.1,1.7-6.2c6.5-38.9-12.7-40.3-12.7-40.3s-3.2-6.1-11.5-10.7c-5.6-3.3-13.4-5.9-23.7-5
			c-3.3,0.2-6.5,0.8-9.4,1.8l0,0c-3.8,1.3-7.3,3.1-10.4,5.3c-3.9,2.4-7.5,5.4-10.7,8.8c-5.1,5.2-9.6,11.9-11.6,20.3
			c-1.6,6.3-1.3,12.8,0.1,19.8l0,0c0.4,2,0.9,4.1,1.7,6.2c-3.8-0.4-8.3,1.9-4.1,16.9c3.1,11,6,14.1,8.2,14.2
			c2,13.1,12.1,29.7,28.7,35.5c6.8,2.4,14.3,2.4,21,0c16.3-5.9,26.7-22.4,28.7-35.5c2.2-0.2,5.1-3.3,8.2-14.2
			C296.897,182.618,292.397,180.418,288.497,180.818z"/>
	</g>
</g>
<g>
</g>
<g>
</g>
<g>
</g>
<g>
</g>
<g>
</g>
<g>
</g>
<g>
</g>
<g>
</g>
<g>
</g>
<g>
</g>
<g>
</g>
<g>
</g>
<g>
</g>
<g>
</g>
<g>
</g>
</svg>
