<?xml version="1.0" encoding="iso-8859-1"?>
<!-- Generator: Adobe Illustrator 19.1.0, SVG Export Plug-In . SVG Version: 6.00 Build 0)  -->
<svg version="1.1" id="Capa_1" xmlns="http://www.w3.org/2000/svg" xmlns:xlink="http://www.w3.org/1999/xlink" x="0px" y="0px"
	 viewBox="0 0 484.7 484.7" style="enable-background:new 0 0 484.7 484.7;" xml:space="preserve">
<g>
	<g>
		<path d="M468.6,204.55h-36.2c-5-25.5-15-49.1-29-70l25.6-25.6c6.2-6.2,6.2-16.4,0-22.6l-30.8-30.8c-6.2-6.2-16.4-6.2-22.6,0
			L350,81.15c-20.8-13.9-44.5-24-70-29v-36.1c0-8.8-7.2-16-16-16h-43.5c-8.8,0-16,7.2-16,16v36.2c-25.5,5-49.1,15-70,29l-25.6-25.6
			c-6.2-6.2-16.4-6.2-22.6,0l-30.7,30.7c-6.2,6.2-6.2,16.4,0,22.6l25.6,25.6c-13.9,20.8-24,44.5-29,70H16c-8.8,0-16,7.2-16,16v43.5
			c0,8.8,7.2,16,16,16h36.2c5,25.5,15,49.1,29,70l-25.6,25.6c-6.2,6.2-6.2,16.4,0,22.6l30.8,30.8c6.2,6.2,16.4,6.2,22.6,0l25.6-25.6
			c20.8,14,44.5,24,70,29v36.2c0,8.8,7.2,16,16,16h43.5c8.8,0,16-7.2,16-16v-36.2c25.5-5,49.1-15,70-29l25.6,25.6
			c6.2,6.2,16.4,6.2,22.6,0l30.8-30.8c6.2-6.2,6.2-16.4,0-22.6l-25.6-25.6c13.9-20.8,24-44.5,29-70h36.2c8.8,0,16-7.2,16-16v-43.5
			C484.6,211.75,477.5,204.55,468.6,204.55z M242.3,378.75c-75.2,0-136.4-61.2-136.4-136.4s61.2-136.4,136.4-136.4
			s136.4,61.2,136.4,136.4S317.5,378.75,242.3,378.75z"/>
		<path d="M242.3,135.75c-30.7,0-58.4,13-77.8,33.7c-17.8,19.1-28.8,44.7-28.8,72.8c0,58.9,47.7,106.6,106.6,106.6
			s106.6-47.7,106.6-106.6C348.9,183.45,301.2,135.75,242.3,135.75z M272.9,284.35c-4.7,5.7-10.7,9.5-17.8,11.4
			c-3.1,0.8-4.5,2.5-4.3,5.7c0.1,3.1,0,6.3,0,9.4c0,2.8-1.4,4.3-4.2,4.4c-3.4,0.1-6.8,0.1-10.2,0c-3-0.1-4.4-1.7-4.4-4.6
			c0-2.3,0-4.6-0.1-6.9c-0.1-5.1-0.2-5.3-5.1-6.1c-6.2-1-12.4-2.4-18.1-5.2c-4.5-2.2-5-3.3-3.7-8c1-3.5,1.9-7,3-10.5
			c1.3-4,2.3-4.5,6.1-2.6c6.3,3.3,13,5.1,20.1,6c4.5,0.6,9,0.1,13.2-1.7c7.8-3.4,9.1-12.5,2.4-18c-2.3-1.9-4.8-3.2-7.5-4.4
			c-6.9-3-14-5.3-20.5-9.2c-10.5-6.3-17.2-15-16.4-27.8c0.9-14.5,9.1-23.5,22.4-28.4c5.5-2,5.5-1.9,5.5-7.6c0-1.9,0-3.9,0-5.8
			c0.1-4.3,0.8-5.1,5.1-5.2c1.3,0,2.7,0,4,0c9.2,0,9.2,0,9.2,9.2c0,6.5,0,6.5,6.5,7.5c4.9,0.8,9.7,2.2,14.2,4.2
			c2.5,1.1,3.5,2.9,2.7,5.5c-1.2,4-2.2,7.9-3.5,11.8c-1.2,3.7-2.4,4.2-5.9,2.5c-7.1-3.5-14.6-4.9-22.6-4.5c-2.1,0.1-4.1,0.4-6,1.2
			c-6.8,3-7.9,10.5-2.1,15.2c2.9,2.4,6.3,4.1,9.8,5.5c6,2.5,12.1,4.9,17.9,8.1C280.9,245.75,285.8,268.75,272.9,284.35z"/>
	</g>
</g>
<g>
</g>
<g>
</g>
<g>
</g>
<g>
</g>
<g>
</g>
<g>
</g>
<g>
</g>
<g>
</g>
<g>
</g>
<g>
</g>
<g>
</g>
<g>
</g>
<g>
</g>
<g>
</g>
<g>
</g>
</svg>
