<?xml version="1.0" encoding="iso-8859-1"?>
<!-- Generator: Adobe Illustrator 19.1.0, SVG Export Plug-In . SVG Version: 6.00 Build 0)  -->
<svg version="1.1" id="Capa_1" xmlns="http://www.w3.org/2000/svg" xmlns:xlink="http://www.w3.org/1999/xlink" x="0px" y="0px"
	 viewBox="0 0 484.3 484.3" style="enable-background:new 0 0 484.3 484.3;" xml:space="preserve">
<g>
	<g>
		<path d="M470.9,305.65c-13.8-9-22.6-20.9-28.4-32.4c26.1-27.8,41.8-63.2,41.8-101.8c0-88.8-83.1-161.1-185.2-161.1
			c-84.4,0-155.8,49.4-178,116.7c13.5-3.9,27.6-6.7,42.1-8.1c23.8-43,75.7-73,135.9-73c82.5,0,149.7,56.3,149.7,125.5
			c0,37.9-20.1,71.9-51.9,94.9c3.5,13.4,5.4,27.4,5.6,41.7c25.2,10.8,50.6,10.2,66.2,8C474,315.25,475.3,308.55,470.9,305.65z"/>
		<path d="M187.4,145.45C83.9,145.45,0,218.95,0,309.75c0,39.1,15.6,75,41.7,103.2c-4.8,13-13.6,27.7-29.6,38.2
			c-4,2.6-2.8,8.7,2,9.4c16.6,2.3,45.2,2.9,71.6-13c29.3,16.7,64.2,26.4,101.8,26.4c103.5,0,187.4-73.5,187.4-164.3
			C374.7,219.05,290.8,145.45,187.4,145.45z M227.4,364.85c-6.4,7.1-14.1,12.2-23.1,14.7c-3.8,1.3-5.8,3.2-5.8,7.1
			c0,3.9,0,8.3,0,12.2c0,3.8-1.9,5.8-5.8,5.8c-4.5,0-9,0-13.5,0c-3.8,0-5.8-2.6-5.8-5.8s0-5.8,0-9c0-6.4,0-7.1-6.4-7.7
			c-8.3-1.3-16-3.2-23.7-7.1c-5.8-2.6-6.4-4.5-4.5-10.3c1.3-4.5,2.6-9,3.8-13.5c1.9-5.1,3.2-5.8,7.7-3.2c8.3,4.5,17.3,6.4,26.3,7.7
			c5.8,0.6,11.5,0,17.3-2.6c10.3-4.5,12.2-16,3.2-23.1c-3.2-2.6-6.4-4.5-9.6-5.8c-9-3.8-18.6-7.1-26.9-12.2
			c-14.1-8.3-22.4-19.2-21.8-35.9c1.3-18.6,12.2-30.8,29.5-37.2c7.1-2.6,7.1-2.6,7.1-9.6c0-2.6,0-5.1,0-7.7c0-5.8,1.3-6.4,6.4-7.1
			c1.9,0,3.2,0,5.1,0c12.2,0,12.2,0,12.2,12.2c0,8.3,0,8.3,8.3,9.6c6.4,1.3,12.8,3.2,18.6,5.8c3.2,1.3,4.5,3.8,3.8,7.1
			c-1.3,5.1-3.2,10.3-4.5,15.4c-1.3,5.1-3.2,5.8-7.7,3.2c-9.6-4.5-19.2-6.4-29.5-5.8c-2.6,0-5.1,0.6-7.7,1.3
			c-9,3.8-10.3,13.5-2.6,19.9c3.8,3.2,8.3,5.1,12.8,7.1c7.7,3.2,16,6.4,23.7,10.3C237.7,314.25,244.1,344.35,227.4,364.85z"/>
	</g>
</g>
<g>
</g>
<g>
</g>
<g>
</g>
<g>
</g>
<g>
</g>
<g>
</g>
<g>
</g>
<g>
</g>
<g>
</g>
<g>
</g>
<g>
</g>
<g>
</g>
<g>
</g>
<g>
</g>
<g>
</g>
</svg>
